<svg width="100" height="100" viewBox="0 0 100 100" fill="none" xmlns="http://www.w3.org/2000/svg">
  <circle cx="50" cy="50" r="45" fill="#4CAF50" />
  <path d="M50 10C27.91 10 10 27.91 10 50C10 72.09 27.91 90 50 90C72.09 90 90 72.09 90 50C90 27.91 72.09 10 50 10ZM50 85C30.67 85 15 69.33 15 50C15 30.67 30.67 15 50 15C69.33 15 85 30.67 85 50C85 69.33 69.33 85 50 85Z" fill="#388E3C"/>
  <path d="M50 20C33.43 20 20 33.43 20 50C20 66.57 33.43 80 50 80C66.57 80 80 66.57 80 50C80 33.43 66.57 20 50 20ZM50 75C36.19 75 25 63.81 25 50C25 36.19 36.19 25 50 25C63.81 25 75 36.19 75 50C75 63.81 63.81 75 50 75Z" fill="#43A047"/>
  <path d="M50 30C38.95 30 30 38.95 30 50C30 61.05 38.95 70 50 70C61.05 70 70 61.05 70 50C70 38.95 61.05 30 50 30ZM65 50C65 58.28 58.28 65 50 65C41.72 65 35 58.28 35 50C35 41.72 41.72 35 50 35C58.28 35 65 41.72 65 50Z" fill="#66BB6A"/>
  <path d="M65 50C65 58.28 58.28 65 50 65V70C61.05 70 70 61.05 70 50H65Z" fill="#2E7D32"/>
  <path d="M50 35V30C38.95 30 30 38.95 30 50H35C35 41.72 41.72 35 50 35Z" fill="#2E7D32"/>
  <path d="M50 65C41.72 65 35 58.28 35 50H30C30 61.05 38.95 70 50 70V65Z" fill="#2E7D32"/>
  <path d="M70 50H65C65 41.72 58.28 35 50 35V30C61.05 30 70 38.95 70 50Z" fill="#2E7D32"/>
  <circle cx="50" cy="50" r="10" fill="#1B5E20" />
  <path d="M49 41H51V48H58V50H51V57H49V50H42V48H49V41Z" fill="white" />
</svg>